<?xml version="1.0" encoding="utf-8"?>
<!-- Generator: Adobe Illustrator 16.0.0, SVG Export Plug-In . SVG Version: 6.00 Build 0)  -->
<!DOCTYPE svg PUBLIC "-//W3C//DTD SVG 1.1//EN" "http://www.w3.org/Graphics/SVG/1.1/DTD/svg11.dtd">
<svg version="1.1" id="Layer_1" xmlns="http://www.w3.org/2000/svg" xmlns:xlink="http://www.w3.org/1999/xlink" x="0px" y="0px"
	 width="90px" height="90px" viewBox="0 0 90 90" enable-background="new 0 0 90 90" xml:space="preserve">
<g>
	<polygon fill="#666666" points="41.759,45.912 58.341,32.143 63.286,37.186 41.618,58.855 28.796,46.029 35.593,39.215 	"/>
	<path fill="#666666" d="M64.353,9.142V7.068H53.946C53.009,3.307,49.64,0.5,45.58,0.5c-4.052,0-7.421,2.807-8.353,6.568H26.815
		v2.074H13.913v81.356h63.342V9.142H64.353z M45.591,4.677c1.703,0,3.137,0.985,3.893,2.391H41.69
		C42.44,5.662,43.874,4.677,45.591,4.677z M70.282,83.82H20.892V15.822h5.924v4.12h37.537v-4.12h5.931L70.282,83.82L70.282,83.82z"
		/>
</g>
</svg>
